HIERARCHY
ROOT hip
{
  OFFSET 0.0 0.0 0.0
  CHANNELS 6 Xposition Yposition Zposition Zrotation Yrotation Xrotation
  JOINT torso
  {
    OFFSET 0.0 0.0 0.0
    CHANNELS 3 Zrotation Xrotation Yrotation
    JOINT neck
    {
      OFFSET -8.059630999999968 325.56260699999996 64.6221310000002
      CHANNELS 3 Zrotation Xrotation Yrotation
      JOINT head
      {
        OFFSET 34.685424000000125 375.1179809999999 232.79357900000002
        CHANNELS 3 Zrotation Xrotation Yrotation
        End Site
        {
          OFFSET 0.0 0.0 0.0
        }
      }
    }
    JOINT left_collar
    {
      OFFSET -8.059630999999968 325.56260699999996 64.6221310000002
      CHANNELS 3 Zrotation Xrotation Yrotation
      JOINT left_upper_arm
      {
        OFFSET -124.124665 -15.370300999999927 25.582641999999964
        CHANNELS 3 Zrotation Xrotation Yrotation
        JOINT left_forearm
        {
          OFFSET -268.19913399999996 105.06054699999993 114.74548300000004
          CHANNELS 3 Zrotation Xrotation Yrotation
          JOINT left_hand
          {
            OFFSET -235.82003099999991 -10.198180999999977 -38.67455999999993
            CHANNELS 3 Zrotation Xrotation Yrotation
            End Site
            {
              OFFSET 0.0 0.0 0.0
            }
          }
        }
      }
    }
    JOINT right_collar
    {
      OFFSET -8.059630999999968 325.56260699999996 64.6221310000002
      CHANNELS 3 Zrotation Xrotation Yrotation
      JOINT right_upper_arm
      {
        OFFSET 162.73931899999997 -2.8598030000000563 26.244994999999903
        CHANNELS 3 Zrotation Xrotation Yrotation
        JOINT right_forearm
        {
          OFFSET 284.6506340000001 103.07031299999994 145.84521499999994
          CHANNELS 3 Zrotation Xrotation Yrotation
          JOINT right_hand
          {
            OFFSET 226.332337 -12.198241999999937 -49.27258299999994
            CHANNELS 3 Zrotation Xrotation Yrotation
            End Site
            {
              OFFSET 0.0 0.0 0.0
            }
          }
        }
      }
    }
  }
}
MOTION
Frames: 19
Frame Time: 0.01
480.5910295335844 193.9663469863697 880.4069890841005 -0.5245087871033121 -4.333200468212958 -46.73429676617791 0.5098875944809039 1.389538027524668 -0.0607787904596467 -1.4072605940619305 2.3211675907872986 0.638956874739545 0.0 0.0 0.0 0.6307545061857959 0.007979126157780719 0.9433918819314954 -6.535687992264225 -14.350046092645846 -22.204551795303296 -20.169750021819624 1.6625903309541548 -12.122999380865668 0.0 0.0 0.0 -0.3232838936338475 0.014278583559566788 -1.8543470773528146 -46.002111560314695 19.20662262831446 -17.008811792398138 -63.85233190859213 -5.788247158563066 14.379504368989478 0.0 0.0 0.0
480.71766671305073 193.46727535918677 880.5867203306009 -0.3268436391028171 -4.315078250439867 -46.62674881566653 0.5157293825460216 1.3767175910381753 -0.062245053354162576 -1.4448073501986782 2.2523609785114447 0.6689140552344631 0.0 0.0 0.0 0.6832311140816001 0.007506759156735012 1.0270281362285985 -5.994837333612825 -13.95598195154336 -22.21804223290463 -21.394267299405247 1.6168752074988257 -12.919468803641424 0.0 0.0 0.0 -0.322300271413218 0.015878752671265664 -1.7687651912413025 -46.02524547528063 19.1974657090205 -17.138671516962045 -63.92213169325489 -5.884020668295079 14.25620898898098 0.0 0.0 0.0
480.7352382550878 193.0004822625798 880.6449499922832 -0.13564737403961666 -4.292250075053563 -46.483293399286566 0.5216900024909382 1.3621687910850935 -0.06378539220996679 -1.4737274234285684 2.1814671017356555 0.693847697533822 0.0 0.0 0.0 0.7337617285544441 0.006307051585711341 1.1127323325656997 -5.466974325970232 -13.562061794376548 -22.21230908618338 -22.667337072555213 1.5459016768407694 -13.780991585880754 0.0 0.0 0.0 -0.32005996209148413 0.01736483594843932 -1.6797027605885728 -46.04258745089591 19.186798368177868 -17.267292649672285 -63.98713748165068 -5.9816483355792425 14.129704388032243 0.0 0.0 0.0
480.64412710758 192.5648208258997 880.5833380670293 0.04854190057934892 -4.265308951099941 -46.30434762134962 0.5277802113920664 1.346110481983437 -0.06539569956580016 -1.494050496326105 2.1088603541156985 0.7137268001173726 0.0 0.0 0.0 0.7819658705594268 0.004366414587350134 1.2000530476669342 -4.9500394783832915 -13.168277372987173 -22.18950719766517 -23.982878533922584 1.446835683239559 -14.703070704283379 0.0 0.0 0.0 -0.31653700725386535 0.0187141284676571 -1.587934048958379 -46.05504337310202 19.174922252588065 -17.394427893250285 -64.0472081998058 -6.080433185829809 14.000930502864067 0.0 0.0 0.0
480.4449421161214 192.1586028241315 880.4047151978177 0.2253026321700446 -4.234976000771575 -46.090445524975685 0.5339863162300111 1.3288508811726374 -0.06706463337894089 -1.5058876199284674 2.0349289341578105 0.7285683792402843 0.0 0.0 0.0 0.8275241230683936 0.0016876267939760366 1.2885209758920093 -4.44146475501594 -12.774113400894311 -22.15163790579757 -25.33554346792742 1.3171296702171977 -15.680931699664779 0.0 0.0 0.0 -0.31174801439903477 0.01990946869723241 -1.494260416689141 -46.063534811465566 19.162141599695858 -17.519807721098335 -64.10226278517486 -6.179667082015262 13.870847485401304 0.0 0.0 0.0
480.1384946944791 191.77969447970628 880.1129442342651 0.394314002138741 -4.202081200166787 -45.84224569881353 0.5402724044152142 1.3107797325901835 -0.06877422316330854 -1.5094216499201705 1.9600669510893696 0.7384327979833758 0.0 0.0 0.0 0.8701831981895388 -0.0017124402426602664 1.377671695683795 -3.9382889498155658 -12.378603156958443 -22.100461900222793 -26.720583297219335 1.1544992684922692 -16.70976025142988 0.0 0.0 0.0 -0.3057511548243261 0.020939738896142555 -1.399491541047177 -46.06896244512024 19.148755480891783 -17.643120696276867 -64.15226844568191 -6.278639028369674 13.740423061201327 0.0 0.0 0.0
479.7257811718834 191.42561409589146 879.7127724738325 0.5553383288393025 -4.1675411904255 -45.56053916711851 0.5465841414154089 1.2923578898268395 -0.07050084762017036 -1.5048982289656387 1.8846666705287487 0.7434193834070676 0.0 0.0 0.0 0.909759678942588 -0.005805572824159571 1.4670692761118151 -3.437270206408285 -11.980388241944986 -22.037420433470306 -28.133672034774506 0.9568871720882086 -17.784913716587404 0.0 0.0 0.0 -0.2986434991565617 0.02180018819598191 -1.3044230274660529 -46.072173588128074 19.135050989372395 -17.763997535947606 -64.19722991626803 -6.376644469452031 13.610618650007723 0.0 0.0 0.0
479.2079706043825 191.09362821819195 879.2096799922524 0.7082028424216389 -4.132334670312843 -45.24625624440282 0.5528538324768669 1.274104473997101 -0.0722165284582279 -1.4926173911210592 1.809111228391279 0.7436623343141224 0.0 0.0 0.0 0.9461422618211242 -0.010555215443400864 1.5563289634017632 -2.934993169774088 -11.577779495830322 -21.96356386082512 -29.570691633541916 0.7224211609328726 -18.90210302459576 0.0 0.0 0.0 -0.2905567218592782 0.022492533445384308 -1.2098115739292798 -46.07393502174952 19.121297449824866 -17.882000653866196 -64.23718041415911 -6.472995571574431 13.48237438181023 0.0 0.0 0.0
478.5863972044446 190.78084347752093 878.6097288071452 0.8527819590448702 -4.097475942853531 -44.900470734941706 0.5590063884071826 1.2565817839764275 -0.07389047319333479 -1.4729256832778226 1.7337681531521505 0.7393268129505168 0.0 0.0 0.0 0.9792923236370931 -0.015919473600794418 1.645137086482012 -2.427968845248165 -11.168817057656671 -21.8794866814744 -31.02748710594537 0.4493731649452188 -20.05754432904762 0.0 0.0 0.0 -0.28165126008388713 0.023024795173564188 -1.1163492432151656 -46.07491209987334 19.107741689318825 -17.99662063894355 -64.27217477096876 -6.567032406338296 13.356593209958858 0.0 0.0 0.0
477.8625560963976 190.48429177203755 877.9194169299933 0.988981103603007 -4.063987265285922 -44.524399792576496 0.5649658014370416 1.2403781946278025 -0.07549079001774482 -1.4462085906632574 1.6589840062582644 0.7306050537419463 0.0 0.0 0.0 1.0092426595486104 -0.02185388018500802 1.7332664432199354 -1.9127257059829326 -10.751328455412432 -21.78526864844287 -32.49959945165682 0.13612570099472232 -21.248082235328297 0.0 0.0 0.0 -0.27210906625743303 0.023410835276478022 -1.0246385928774069 -46.07565479679052 19.094604369440365 -18.107280736179497 -64.30228499706429 -6.658134879829164 13.234124396427198 0.0 0.0 0.0
477.0381008142828 190.20100697307282 877.1455407067679 1.116722990042192 -4.032870741650968 -44.119397956524104 0.5706617286540036 1.226089374890205 -0.07698629091140807 -1.4128830293588046 1.5850803824143116 0.717712317143026 0.0 0.0 0.0 1.0360943005726992 -0.02831372383434347 1.820585791406016 -1.3858909467603697 -10.322984389482189 -21.680422012771174 -33.98198500064222 -0.21884884485465705 -22.471288190870705 0.0 0.0 0.0 -0.2621251513128188 0.023669579741077782 -0.9351703816675068 -46.076591020796556 19.082077341131374 -18.213349889655415 -64.32759832855581 -6.7457351700714785 13.115746720482504 0.0 0.0 0.0
476.11484078717586 189.92809187226226 876.2950682431743 1.2359370740338922 -4.005080589785537 -43.686944309478996 0.5760357933791944 1.2142982844802974 -0.07834829489378835 -1.3733897151828496 1.5123514159159996 0.7008825576307817 0.0 0.0 0.0 1.0600114184353255 -0.03525579752523242 1.9070626215983522 -0.8442610595107798 -9.881352489323273 -21.563845494647893 -35.46873032579398 -0.6169915916814599 -23.725538734713908 0.0 0.0 0.0 -0.25189817986649704 0.023823932780126678 -0.8483053430353629 -46.078027142346016 19.070321950942436 -18.314164301364546 -64.34821762476696 -6.829330354067202 13.002151836401918 0.0 0.0 0.0
475.0947369818458 189.66277459858455 875.3750261404912 1.3465526604849871 -3.9814966937728213 -43.22862228274426 0.5810472422539361 1.205554550819799 -0.07955234131702128 -1.3281853063164033 1.4410628283998175 0.680363742806356 0.0 0.0 0.0 1.0812144525520648 -0.04263949665623386 1.9927590395847208 -0.2848611434430251 -9.423949769426269 -21.43378606761699 -36.952772427127535 -1.0596396457554802 -25.010078784348856 0.0 0.0 0.0 -0.2416204543581218 0.023899416205842315 -0.7642611595331449 -46.08015529985973 19.059468203182924 -18.40905679024116 -64.36426382311987 -6.90849482536674 12.89392827825072 0.0 0.0 0.0
473.9798938848091 189.40245420679364 874.3924012048641 1.4484958962904937 -3.9629004045508682 -42.74609226112166 0.5856776340380002 1.200353969696682 -0.08057972371315815 -1.277734316398015 1.3714524401490056 0.6564128353793834 0.0 0.0 0.0 1.0999717323636942 -0.050427266067730236 2.0778212334921 0.2950074006042325 -8.948294791647898 -21.2878100566708 -38.42563440982617 -1.547984967450282 -26.32507503409727 0.0 0.0 0.0 -0.23146771824451665 0.023922597810389457 -0.6831053692202793 -46.083066656232546 19.049614665471985 -18.49739254423525 -64.37588001976809 -6.982892023027505 12.791546683444018 0.0 0.0 0.0
472.7725461067403 189.14473556260333 873.354058215835 1.5416906242285258 -3.9499535628757143 -42.24105773105797 0.5899342846747025 1.1991189959251412 -0.08141875884256708 -1.2225008826232266 1.3037319632531248 0.6292905160406733 0.0 0.0 0.0 1.1165900016965569 -0.05858445514649192 2.1624635624680475 0.8977308819876374 -8.451960669576184 -21.122785374772235 -39.87718730972853 -2.083007538774607 -27.67166387979467 0.0 0.0 0.0 -0.22158931630806789 0.0239194023658522 -0.6047545525378536 -46.08676939228195 19.040828992505183 -18.57860919591013 -64.38323663522698 -7.052284916813428 12.695346880685568 0.0 0.0 0.0
471.4750380861858 188.88745402096208 872.2666742442973 1.6260628332568596 -3.94318167883294 -41.715226206652865 0.5938522516515541 1.2021811750845859 -0.08206571406483534 -1.1629405362607512 1.2380898082323144 0.5992557736802773 0.0 0.0 0.0 1.131404363729277 -0.06707868347881649 2.246948723847999 1.5253588450220503 -7.932630036790756 -20.93487696879226 -41.29544896942891 -2.665381160686767 -29.05199707681478 0.0 0.0 0.0 -0.21209934675849756 0.023913423522063992 -0.5289798118786259 -46.091209876201916 19.033148934067746 -18.652258600595154 -64.38653705612941 -7.1165446365999925 12.605527546050812 0.0 0.0 0.0
470.0897956567584 188.6286907083479 871.1366894112655 1.7015482268762117 -3.942962102376207 -41.17026652610139 0.5974947080260009 1.2097664972505568 -0.08252532939525885 -1.0994921559628277 1.174694568687899 0.5665605166684097 0.0 0.0 0.0 1.1447682386991718 -0.07587884449934613 2.3315657025610768 2.179590616810068 -7.388152946053503 -20.719557723789432 -42.66643079138802 -3.295350380457082 -30.469286579828644 0.0 0.0 0.0 -0.203069476158094 0.02392436668480655 -0.4554182612275476 -46.096295214503286 19.026583693706353 -18.718047357980137 -64.38602311881348 -7.175656621566054 12.522139140662404 0.0 0.0 0.0
468.6192886173057 188.36677947206297 869.9702734095889 1.7681022539284355 -3.9495178559857673 -40.60776433266314 0.6009516308945677 1.2219846152018763 -0.08281088853058884 -1.0325702899583789 1.1136987997728136 0.5314443667570276 0.0 0.0 0.0 1.1570439449486567 -0.0849538838014917 2.416607277994186 2.861772077184457 -6.8166083732168 -20.471637170614127 -43.974042600739914 -3.9725769703368177 -31.92784768317299 0.0 0.0 0.0 -0.1945240236385147 0.023966745823286034 -0.38358998218870616 -46.10191534220229 19.021115520962944 -18.775873063393462 -64.38197980186263 -7.229723719981801 12.44508077023128 0.0 0.0 0.0
467.0659838983838 188.10030674178066 868.7733066129954 1.825711814252369 -3.962917570526006 -40.029177655709226 0.6043368054977784 1.2388227500656792 -0.0829438147440434 -0.962558019180258 1.055242675462248 0.49412979032454996 0.0 0.0 0.0 1.1685944636388157 -0.09427148832571197 2.50234878421932 3.5729015072529187 -6.216369583884117 -20.1853103362636 -45.20006460256862 -4.695954048764882 -33.43313662891459 0.0 0.0 0.0 -0.1864377572322444 0.024048931862370358 -0.31291967553894795 -46.10796296069214 19.016701451188037 -18.82585350652595 -64.37473850842142 -7.27896579821607 12.374101440610227 0.0 0.0 0.0
